<mxfile host="app.diagrams.net" modified="2022-08-07T09:10:39.445Z" agent="5.0 (Windows NT 10.0; Win64; x64) AppleWebKit/537.36 (KHTML, like Gecko) Chrome/103.0.5060.134 Safari/537.36 Edg/103.0.1264.77" etag="mrAUf0YYK0VI9HXdsgZc" version="20.2.3" type="github">
  <diagram id="WCKdaZAybNmvm6cT548h" name="第 1 页">
    <mxGraphModel dx="2844" dy="1524" grid="1" gridSize="10" guides="1" tooltips="1" connect="1" arrows="1" fold="1" page="1" pageScale="1" pageWidth="1200" pageHeight="1920" math="0" shadow="0">
      <root>
        <mxCell id="0" />
        <mxCell id="1" parent="0" />
        <mxCell id="m9TbVkQBXdhPgOgYhKv_-38" value="" style="shape=image;verticalLabelPosition=bottom;labelBackgroundColor=default;verticalAlign=top;aspect=fixed;imageAspect=0;image=https://s3.amazonaws.com/thumbnails.venngage.com/template/5620fc1f-3bf6-4ff4-a406-c7c68a9efd7c.png;" parent="1" vertex="1">
          <mxGeometry x="680" width="520" height="402" as="geometry" />
        </mxCell>
        <mxCell id="DU8MWkY8y_udkj92Kaym-29" style="edgeStyle=orthogonalEdgeStyle;rounded=0;orthogonalLoop=1;jettySize=auto;html=1;exitX=0.5;exitY=0;exitDx=0;exitDy=0;entryX=0.5;entryY=1;entryDx=0;entryDy=0;fontSize=25;" edge="1" parent="1" source="DU8MWkY8y_udkj92Kaym-12" target="DU8MWkY8y_udkj92Kaym-27">
          <mxGeometry relative="1" as="geometry" />
        </mxCell>
        <mxCell id="DU8MWkY8y_udkj92Kaym-12" value="" style="rounded=0;whiteSpace=wrap;html=1;strokeColor=#000000;fillColor=#CC0000;" vertex="1" parent="1">
          <mxGeometry x="226" y="870" width="179" height="60" as="geometry" />
        </mxCell>
        <mxCell id="DU8MWkY8y_udkj92Kaym-31" style="edgeStyle=orthogonalEdgeStyle;rounded=0;orthogonalLoop=1;jettySize=auto;html=1;exitX=0.5;exitY=1;exitDx=0;exitDy=0;entryX=0.5;entryY=0;entryDx=0;entryDy=0;fontSize=25;" edge="1" parent="1" source="DU8MWkY8y_udkj92Kaym-13" target="DU8MWkY8y_udkj92Kaym-30">
          <mxGeometry relative="1" as="geometry" />
        </mxCell>
        <mxCell id="DU8MWkY8y_udkj92Kaym-13" value="" style="rounded=0;whiteSpace=wrap;html=1;strokeColor=#000000;fillColor=#FF3333;" vertex="1" parent="1">
          <mxGeometry x="408" y="870" width="187" height="60" as="geometry" />
        </mxCell>
        <mxCell id="DU8MWkY8y_udkj92Kaym-33" style="edgeStyle=orthogonalEdgeStyle;rounded=0;orthogonalLoop=1;jettySize=auto;html=1;exitX=0.5;exitY=0;exitDx=0;exitDy=0;entryX=0.5;entryY=1;entryDx=0;entryDy=0;fontSize=25;" edge="1" parent="1" source="DU8MWkY8y_udkj92Kaym-14" target="DU8MWkY8y_udkj92Kaym-32">
          <mxGeometry relative="1" as="geometry" />
        </mxCell>
        <mxCell id="DU8MWkY8y_udkj92Kaym-14" value="" style="rounded=0;whiteSpace=wrap;html=1;strokeColor=#000000;fillColor=#FF8000;" vertex="1" parent="1">
          <mxGeometry x="597.5" y="870" width="187" height="60" as="geometry" />
        </mxCell>
        <mxCell id="DU8MWkY8y_udkj92Kaym-35" style="edgeStyle=orthogonalEdgeStyle;rounded=0;orthogonalLoop=1;jettySize=auto;html=1;exitX=0.5;exitY=1;exitDx=0;exitDy=0;entryX=0.5;entryY=0;entryDx=0;entryDy=0;fontSize=25;" edge="1" parent="1" source="DU8MWkY8y_udkj92Kaym-15" target="DU8MWkY8y_udkj92Kaym-34">
          <mxGeometry relative="1" as="geometry" />
        </mxCell>
        <mxCell id="DU8MWkY8y_udkj92Kaym-15" value="" style="rounded=0;whiteSpace=wrap;html=1;strokeColor=#000000;fillColor=#FF9933;" vertex="1" parent="1">
          <mxGeometry x="787.5" y="870" width="187" height="60" as="geometry" />
        </mxCell>
        <mxCell id="DU8MWkY8y_udkj92Kaym-16" value="Armv6/7" style="text;html=1;strokeColor=none;fillColor=none;align=center;verticalAlign=middle;whiteSpace=wrap;rounded=0;fontSize=33;" vertex="1" parent="1">
          <mxGeometry x="250.75" y="930" width="129.5" height="60" as="geometry" />
        </mxCell>
        <mxCell id="DU8MWkY8y_udkj92Kaym-17" value="Armv8.0" style="text;html=1;strokeColor=none;fillColor=none;align=center;verticalAlign=middle;whiteSpace=wrap;rounded=0;fontSize=33;" vertex="1" parent="1">
          <mxGeometry x="436.75" y="810" width="129.5" height="60" as="geometry" />
        </mxCell>
        <mxCell id="DU8MWkY8y_udkj92Kaym-18" value="Armv8.4" style="text;html=1;strokeColor=none;fillColor=none;align=center;verticalAlign=middle;whiteSpace=wrap;rounded=0;fontSize=33;" vertex="1" parent="1">
          <mxGeometry x="626.25" y="930" width="129.5" height="60" as="geometry" />
        </mxCell>
        <mxCell id="DU8MWkY8y_udkj92Kaym-19" value="Armv9.2" style="text;html=1;strokeColor=none;fillColor=none;align=center;verticalAlign=middle;whiteSpace=wrap;rounded=0;fontSize=33;" vertex="1" parent="1">
          <mxGeometry x="816.25" y="810" width="129.5" height="60" as="geometry" />
        </mxCell>
        <mxCell id="DU8MWkY8y_udkj92Kaym-20" value="" style="rounded=0;whiteSpace=wrap;html=1;fontSize=33;fillColor=#B3B3B3;strokeColor=#000000;" vertex="1" parent="1">
          <mxGeometry x="103" y="870" width="120" height="60" as="geometry" />
        </mxCell>
        <mxCell id="DU8MWkY8y_udkj92Kaym-21" value="" style="rounded=0;whiteSpace=wrap;html=1;fontSize=33;fillColor=#B3B3B3;strokeColor=#000000;" vertex="1" parent="1">
          <mxGeometry x="977.5" y="870" width="120" height="60" as="geometry" />
        </mxCell>
        <mxCell id="DU8MWkY8y_udkj92Kaym-22" value="&lt;font style=&quot;font-size: 25px;&quot;&gt;Arm partitions the whole system into two worlds: secure world for TEE and normal world for REE.&lt;br&gt;&lt;/font&gt;" style="text;strokeColor=none;fillColor=none;align=center;verticalAlign=middle;rounded=0;fontSize=33;whiteSpace=wrap;html=1;" vertex="1" parent="1">
          <mxGeometry x="145.69" y="995" width="339.62" height="150" as="geometry" />
        </mxCell>
        <mxCell id="DU8MWkY8y_udkj92Kaym-23" value="&lt;span style=&quot;font-size: 25px;&quot;&gt;The monitor mode for world switch is moved from EL1 to EL3.&lt;/span&gt;" style="text;strokeColor=none;fillColor=none;align=center;verticalAlign=middle;rounded=0;fontSize=33;whiteSpace=wrap;html=1;" vertex="1" parent="1">
          <mxGeometry x="367.88" y="680" width="267.25" height="120" as="geometry" />
        </mxCell>
        <mxCell id="DU8MWkY8y_udkj92Kaym-24" value="&lt;font style=&quot;font-size: 25px;&quot;&gt;Arm supports Secure EL2 that can be used for virtualization in the secure world.&lt;br&gt;&lt;/font&gt;" style="text;strokeColor=none;fillColor=none;align=center;verticalAlign=middle;rounded=0;fontSize=33;whiteSpace=wrap;html=1;" vertex="1" parent="1">
          <mxGeometry x="565.12" y="980" width="251.75" height="180" as="geometry" />
        </mxCell>
        <mxCell id="DU8MWkY8y_udkj92Kaym-25" value="&lt;font style=&quot;font-size: 25px;&quot;&gt;Arm introduce two new worlds: Root world and Realm world.&lt;/font&gt;" style="text;strokeColor=none;fillColor=none;align=center;verticalAlign=middle;rounded=0;fontSize=33;whiteSpace=wrap;html=1;" vertex="1" parent="1">
          <mxGeometry x="741" y="680" width="280" height="120" as="geometry" />
        </mxCell>
        <mxCell id="DU8MWkY8y_udkj92Kaym-27" value="" style="ellipse;whiteSpace=wrap;html=1;aspect=fixed;labelBorderColor=default;fontSize=25;" vertex="1" parent="1">
          <mxGeometry x="262.75" y="554.5" width="105.5" height="105.5" as="geometry" />
        </mxCell>
        <mxCell id="DU8MWkY8y_udkj92Kaym-30" value="" style="ellipse;whiteSpace=wrap;html=1;aspect=fixed;labelBorderColor=default;fontSize=25;" vertex="1" parent="1">
          <mxGeometry x="448.75" y="1130" width="105.5" height="105.5" as="geometry" />
        </mxCell>
        <mxCell id="DU8MWkY8y_udkj92Kaym-32" value="" style="ellipse;whiteSpace=wrap;html=1;aspect=fixed;labelBorderColor=default;fontSize=25;" vertex="1" parent="1">
          <mxGeometry x="638.25" y="554.5" width="105.5" height="105.5" as="geometry" />
        </mxCell>
        <mxCell id="DU8MWkY8y_udkj92Kaym-34" value="" style="ellipse;whiteSpace=wrap;html=1;aspect=fixed;labelBorderColor=default;fontSize=25;" vertex="1" parent="1">
          <mxGeometry x="828.25" y="1130" width="105.5" height="105.5" as="geometry" />
        </mxCell>
      </root>
    </mxGraphModel>
  </diagram>
</mxfile>
